<?xml version="1.0" standalone="no"?>
<!DOCTYPE svg PUBLIC "-//W3C//DTD SVG 20010904//EN"
 "http://www.w3.org/TR/2001/REC-SVG-20010904/DTD/svg10.dtd">
<svg version="1.0" xmlns="http://www.w3.org/2000/svg"
 width="230.000000pt" height="223.000000pt" viewBox="0 0 230.000000 223.000000"
 preserveAspectRatio="xMidYMid meet">

<g transform="translate(0.000000,223.000000) scale(0.100000,-0.100000)"
fill="#000000" stroke="none">
<path d="M956 2175 c-379 -72 -690 -338 -814 -695 -45 -132 -57 -209 -56 -370
1 -121 6 -161 27 -242 105 -397 417 -697 812 -779 111 -24 308 -26 415 -5 224
43 412 147 574 316 166 174 258 375 287 625 22 183 -13 378 -100 560 -138 290
-386 491 -711 577 -101 27 -324 33 -434 13z m803 -550 c326 -77 488 -436 334
-740 -56 -109 -184 -211 -312 -249 -62 -18 -193 -21 -261 -5 -232 53 -404 290
-386 529 23 318 318 537 625 465z"/>
<path d="M1583 1258 c2 -7 15 -41 27 -76 13 -34 28 -61 33 -59 13 4 69 138 62
145 -8 8 -12 1 -38 -68 l-24 -65 -22 68 c-13 37 -27 67 -33 67 -6 0 -8 -6 -5
-12z"/>
<path d="M1600 910 c0 -5 20 -10 45 -10 25 0 45 5 45 10 0 6 -20 10 -45 10
-25 0 -45 -4 -45 -10z"/>
</g>
</svg>
